<?xml version="1.0" encoding="utf-8"?>
<!-- Generator: Adobe Illustrator 24.3.0, SVG Export Plug-In . SVG Version: 6.00 Build 0)  -->
<svg version="1.1" id="Ebene_1" xmlns="http://www.w3.org/2000/svg" xmlns:xlink="http://www.w3.org/1999/xlink" x="0px" y="0px"
	 viewBox="0 0 12 12" style="enable-background:new 0 0 12 12;" xml:space="preserve">
<style type="text/css">
	.st0{fill-rule:evenodd;clip-rule:evenodd;fill:#FFFFFF;}
	.st1{fill:#FFFFFF;}
</style>
<path class="st0" d="M10.1,0.8H1.9c-0.4,0-0.8,0.3-0.8,0.8v9c0,0.4,0.3,0.8,0.8,0.8h8.2c0.4,0,0.8-0.3,0.8-0.8v-9
	C10.9,1.1,10.5,0.8,10.1,0.8z M1.9,0C1,0,0.4,0.7,0.4,1.5v9C0.4,11.3,1,12,1.9,12h8.2c0.8,0,1.5-0.7,1.5-1.5v-9
	C11.6,0.7,11,0,10.1,0H1.9z"/>
<path class="st1" d="M4.9,2.2c0-0.4,0.3-0.8,0.8-0.8h0.8c0.4,0,0.8,0.3,0.8,0.8v2.2c0,0.4-0.3,0.8-0.8,0.8H5.6
	c-0.4,0-0.8-0.3-0.8-0.8V2.2z M1.9,2.2c0-0.4,0.3-0.8,0.8-0.8h0.8c0.4,0,0.8,0.3,0.8,0.8v5.2c0,0.4-0.3,0.8-0.8,0.8H2.6
	c-0.4,0-0.8-0.3-0.8-0.8V2.2z M7.9,2.2c0-0.4,0.3-0.8,0.8-0.8h0.8c0.4,0,0.8,0.3,0.8,0.8v7.5c0,0.4-0.3,0.8-0.8,0.8H8.6
	c-0.4,0-0.8-0.3-0.8-0.8V2.2z"/>
</svg>
